<svg width="63" height="61" viewBox="0 0 63 61" fill="none" xmlns="http://www.w3.org/2000/svg">
<g clip-path="url(#clip0_2_7)">
<rect width="63" height="61" fill="white"/>
<path d="M18.2344 39.6992C18.2344 39.5 18.2676 39.2949 18.334 39.084C18.6699 38.9902 18.9844 38.9453 19.2773 38.9492C19.2031 38.1875 19.1406 37.3555 19.0898 36.4531C19.0391 35.5469 19.0039 34.7109 18.9844 33.9453H18.9785L18.1406 33.8223C18.0898 33.6777 18.0508 33.5176 18.0234 33.3418C17.9961 33.166 17.9824 32.9961 17.9824 32.832C17.9824 32.707 17.9922 32.5703 18.0117 32.4219C18.4297 32.2383 19.0859 32.1094 19.9805 32.0352C20.875 31.957 21.7637 31.918 22.6465 31.918C23.2402 31.918 23.7441 31.9648 24.1582 32.0586C24.5723 32.1523 24.918 32.3652 25.1953 32.6973C25.4766 33.0254 25.6172 33.5176 25.6172 34.1738C25.6172 35.3887 25.3242 36.9824 24.7383 38.9551C24.6406 39.2793 24.5312 39.5703 24.4102 39.8281C24.2891 40.0859 24.1348 40.3086 23.9473 40.4961C23.7871 40.6758 23.6211 40.8125 23.4492 40.9062C23.2812 40.9961 23.0781 41.041 22.8398 41.041C22.7188 41.041 22.5547 41.0215 22.3477 40.9824C22.0898 40.9316 21.8613 40.8672 21.6621 40.7891C21.4629 40.707 21.2969 40.625 21.1641 40.543C21.0352 40.4609 20.8809 40.3574 20.7012 40.2324C20.623 40.3457 20.4922 40.4707 20.3086 40.6074C20.1289 40.7441 19.9297 40.8613 19.7109 40.959C19.4922 41.0566 19.2891 41.1094 19.1016 41.1172C18.832 41.0156 18.6191 40.8359 18.4629 40.5781C18.3105 40.3164 18.2344 40.0234 18.2344 39.6992ZM22.7461 38.9023C22.8555 38.3633 22.9414 37.7383 23.0039 37.0273C23.0664 36.3125 23.1191 35.541 23.1621 34.7129L23.1855 34.2969C23.1621 34.2539 23.0664 34.2109 22.8984 34.168C22.7344 34.125 22.5176 34.1035 22.248 34.1035L21.791 34.0977C21.5723 34.0977 21.3965 34.1074 21.2637 34.127C21.2637 34.291 21.2656 34.4297 21.2695 34.543C21.2812 35.2227 21.2871 35.8301 21.2871 36.3652C21.2871 36.9863 21.2812 37.8691 21.2695 39.0137C21.7812 39.0137 22.2734 38.9766 22.7461 38.9023ZM34.7285 38.9316C35.0723 39.0684 35.3477 39.1738 35.5547 39.248C35.7617 39.3223 35.9883 39.3867 36.2344 39.4414C36.4844 39.4961 36.7324 39.5234 36.9785 39.5234C37.0879 39.5234 37.166 39.5137 37.2129 39.4941C37.2246 39.4785 37.2344 39.4551 37.2422 39.4238C37.2539 39.3887 37.2598 39.3535 37.2598 39.3184C37.2598 39.2402 37.2148 39.1758 37.125 39.125C36.9844 39.0469 36.7344 38.9238 36.375 38.7559C35.8828 38.5215 35.4922 38.3125 35.2031 38.1289C34.918 37.9453 34.6758 37.7012 34.4766 37.3965C34.2812 37.0918 34.1836 36.709 34.1836 36.248C34.1836 35.5879 34.3809 35.0586 34.7754 34.6602C35.1699 34.2578 35.7949 34.0566 36.6504 34.0566C37.6699 34.0566 38.4629 34.1895 39.0293 34.4551C39.0566 34.5684 39.0703 34.7109 39.0703 34.8828C39.0703 35.2109 39.0195 35.5469 38.918 35.8906C38.8164 36.2305 38.6836 36.4824 38.5195 36.6465C38.2969 36.5723 37.9824 36.4531 37.5762 36.2891C37.2793 36.1719 37.043 36.082 36.8672 36.0195C36.6953 35.9531 36.5371 35.9062 36.3926 35.8789C36.3145 35.8984 36.252 35.9453 36.2051 36.0195C36.1582 36.0898 36.1348 36.1738 36.1348 36.2715C36.1348 36.3574 36.1602 36.4297 36.2109 36.4883C36.2617 36.5469 36.3184 36.5938 36.3809 36.6289C36.4473 36.6602 36.541 36.7031 36.6621 36.7578C36.7246 36.7852 36.7832 36.8105 36.8379 36.834C36.8926 36.8535 36.9434 36.873 36.9902 36.8926C37.2949 37.0215 37.5352 37.127 37.7109 37.209C37.8867 37.291 38.0566 37.3887 38.2207 37.502C38.5215 37.709 38.7578 37.9453 38.9297 38.2109C39.1016 38.4766 39.1875 38.7676 39.1875 39.084C39.1875 39.5215 39.0625 39.9004 38.8125 40.2207C38.5664 40.5371 38.25 40.7676 37.8633 40.9121C37.6602 40.9863 37.4375 41.0391 37.1953 41.0703C36.957 41.1055 36.6777 41.123 36.3574 41.123C35.9785 41.123 35.5879 41.0508 35.1855 40.9062C34.7871 40.7578 34.4824 40.5117 34.2715 40.168C34.2754 39.9297 34.3066 39.7227 34.3652 39.5469C34.4277 39.3672 34.5488 39.1621 34.7285 38.9316ZM40.1777 37.2148C40.1777 35.3867 40.2129 34.1328 40.2832 33.4531L39.6211 33.3359C39.5273 32.9766 39.4805 32.5898 39.4805 32.1758C39.5391 32.1016 39.6484 32.0098 39.8086 31.9004C39.9688 31.791 40.1543 31.6953 40.3652 31.6133C40.5801 31.5312 40.793 31.4902 41.0039 31.4902C41.5273 31.4902 41.9336 31.6035 42.2227 31.8301C42.5156 32.0566 42.6621 32.4434 42.6621 32.9902C42.6621 33.2637 42.6426 33.6836 42.6035 34.25C42.5645 34.8125 42.4922 35.4961 42.3867 36.3008C42.2812 37.1055 42.1406 37.9453 41.9648 38.8203L42.0645 38.8789C42.373 38.4531 42.6699 37.9844 42.9551 37.4727C43.2402 36.957 43.4668 36.4785 43.6348 36.0371L43.1309 35.9141C43.084 35.6484 43.0605 35.334 43.0605 34.9707V34.7598C43.209 34.5723 43.4121 34.4082 43.6699 34.2676C43.9316 34.127 44.2559 34.0566 44.6426 34.0566C44.9199 34.0566 45.1602 34.1094 45.3633 34.2148C45.5664 34.3164 45.7227 34.459 45.832 34.6426C45.9414 34.8262 45.9961 35.0371 45.9961 35.2754C45.9961 35.4551 45.9688 35.625 45.9141 35.7852C45.8594 35.9414 45.7773 36.1074 45.668 36.2832C45.3867 36.7285 44.8965 37.3613 44.1973 38.1816C44.4316 38.5098 44.6602 38.7949 44.8828 39.0371C44.9688 38.9941 45.0488 38.9375 45.123 38.8672C45.2012 38.7969 45.3008 38.6953 45.4219 38.5625L45.5508 38.4277L46.2715 38.9727C46.2441 39.668 46.0938 40.1992 45.8203 40.5664C45.5508 40.9297 45.1934 41.1113 44.748 41.1113C44.2598 41.1113 43.8926 40.9629 43.6465 40.666C43.4004 40.3691 43.2207 39.9492 43.1074 39.4062C42.6777 39.8711 42.2988 40.2617 41.9707 40.5781C41.6465 40.8906 41.4336 41.0703 41.332 41.1172C41.1172 41.1172 40.9121 41.0918 40.7168 41.041C40.5215 40.9902 40.377 40.9102 40.2832 40.8008C40.2402 40.2461 40.2109 39.6973 40.1953 39.1543C40.1836 38.6074 40.1777 37.9609 40.1777 37.2148Z" fill="#15A507"/>
<path d="M29.74 26.22C32.9667 27.5133 34.58 29.12 34.58 31.04C34.58 32.04 34.2933 32.7667 33.72 33.22C33.16 33.66 32.1133 33.88 30.58 33.88C29.6067 33.88 28.8067 33.8067 28.18 33.66C27.9267 34.2867 27.8 34.94 27.8 35.62C28.4 35.7 29.08 35.74 29.84 35.74C31.2267 35.74 32.5333 35.52 33.76 35.08L34.36 37.02C33.3867 37.3267 32.2933 37.48 31.08 37.48C28.92 37.48 27.3333 37.0867 26.32 36.3C26.1067 35.3533 26 34.46 26 33.62C26 31.94 26.3667 30.4267 27.1 29.08C27.8467 27.7333 28.7267 26.78 29.74 26.22ZM28.58 32.72C28.7533 32.7333 29.1867 32.74 29.88 32.74C30.5867 32.74 31.3933 32.6467 32.3 32.46C32.34 32.2067 32.36 31.9533 32.36 31.7C32.36 30.9 32.14 30.1333 31.7 29.4C30.38 30.28 29.34 31.3867 28.58 32.72Z" fill="#0651AE"/>
<path d="M0.758523 29V20.2727H2.60369V23.8736H6.34943V20.2727H8.19034V29H6.34943V25.3949H2.60369V29H0.758523ZM12.6349 29.1278C11.973 29.1278 11.4006 28.9872 10.9176 28.706C10.4375 28.4219 10.0668 28.027 9.8054 27.5213C9.54403 27.0128 9.41335 26.4233 9.41335 25.7528C9.41335 25.0767 9.54403 24.4858 9.8054 23.9801C10.0668 23.4716 10.4375 23.0767 10.9176 22.7955C11.4006 22.5114 11.973 22.3693 12.6349 22.3693C13.2969 22.3693 13.8679 22.5114 14.348 22.7955C14.831 23.0767 15.2031 23.4716 15.4645 23.9801C15.7259 24.4858 15.8565 25.0767 15.8565 25.7528C15.8565 26.4233 15.7259 27.0128 15.4645 27.5213C15.2031 28.027 14.831 28.4219 14.348 28.706C13.8679 28.9872 13.2969 29.1278 12.6349 29.1278ZM12.6435 27.7216C12.9446 27.7216 13.196 27.6364 13.3977 27.4659C13.5994 27.2926 13.7514 27.0568 13.8537 26.7585C13.9588 26.4602 14.0114 26.1207 14.0114 25.7401C14.0114 25.3594 13.9588 25.0199 13.8537 24.7216C13.7514 24.4233 13.5994 24.1875 13.3977 24.0142C13.196 23.8409 12.9446 23.7543 12.6435 23.7543C12.3395 23.7543 12.0838 23.8409 11.8764 24.0142C11.6719 24.1875 11.517 24.4233 11.4119 24.7216C11.3097 25.0199 11.2585 25.3594 11.2585 25.7401C11.2585 26.1207 11.3097 26.4602 11.4119 26.7585C11.517 27.0568 11.6719 27.2926 11.8764 27.4659C12.0838 27.6364 12.3395 27.7216 12.6435 27.7216ZM17.0369 29V22.4545H18.767V23.6094H18.8438C18.9801 23.2259 19.2074 22.9233 19.5256 22.7017C19.8438 22.4801 20.2244 22.3693 20.6676 22.3693C21.1165 22.3693 21.4986 22.4815 21.8139 22.706C22.1293 22.9276 22.3395 23.2287 22.4446 23.6094H22.5128C22.6463 23.2344 22.8878 22.9347 23.2372 22.7102C23.5895 22.483 24.0057 22.3693 24.4858 22.3693C25.0966 22.3693 25.5923 22.5639 25.973 22.9531C26.3565 23.3395 26.5483 23.8878 26.5483 24.598V29H24.7372V24.956C24.7372 24.5923 24.6406 24.3196 24.4474 24.1378C24.2543 23.956 24.0128 23.8651 23.723 23.8651C23.3935 23.8651 23.1364 23.9702 22.9517 24.1804C22.767 24.3878 22.6747 24.6619 22.6747 25.0028V29H20.9148V24.9176C20.9148 24.5966 20.8224 24.3409 20.6378 24.1506C20.456 23.9602 20.2159 23.8651 19.9176 23.8651C19.7159 23.8651 19.5341 23.9162 19.3722 24.0185C19.2131 24.1179 19.0866 24.2585 18.9929 24.4403C18.8991 24.6193 18.8523 24.8295 18.8523 25.071V29H17.0369ZM34.8281 29L33.0469 22.4545H34.8835L35.8977 26.8523H35.9574L37.0142 22.4545H38.8168L39.8906 26.8267H39.946L40.9432 22.4545H42.7756L40.9986 29H39.0767L37.9517 24.8835H37.8707L36.7457 29H34.8281ZM46.5373 29.1278C45.8754 29.1278 45.3029 28.9872 44.82 28.706C44.3398 28.4219 43.9691 28.027 43.7077 27.5213C43.4464 27.0128 43.3157 26.4233 43.3157 25.7528C43.3157 25.0767 43.4464 24.4858 43.7077 23.9801C43.9691 23.4716 44.3398 23.0767 44.82 22.7955C45.3029 22.5114 45.8754 22.3693 46.5373 22.3693C47.1992 22.3693 47.7702 22.5114 48.2504 22.7955C48.7333 23.0767 49.1055 23.4716 49.3668 23.9801C49.6282 24.4858 49.7589 25.0767 49.7589 25.7528C49.7589 26.4233 49.6282 27.0128 49.3668 27.5213C49.1055 28.027 48.7333 28.4219 48.2504 28.706C47.7702 28.9872 47.1992 29.1278 46.5373 29.1278ZM46.5458 27.7216C46.8469 27.7216 47.0984 27.6364 47.3001 27.4659C47.5018 27.2926 47.6538 27.0568 47.756 26.7585C47.8612 26.4602 47.9137 26.1207 47.9137 25.7401C47.9137 25.3594 47.8612 25.0199 47.756 24.7216C47.6538 24.4233 47.5018 24.1875 47.3001 24.0142C47.0984 23.8409 46.8469 23.7543 46.5458 23.7543C46.2418 23.7543 45.9862 23.8409 45.7788 24.0142C45.5742 24.1875 45.4194 24.4233 45.3143 24.7216C45.212 25.0199 45.1609 25.3594 45.1609 25.7401C45.1609 26.1207 45.212 26.4602 45.3143 26.7585C45.4194 27.0568 45.5742 27.2926 45.7788 27.4659C45.9862 27.6364 46.2418 27.7216 46.5458 27.7216ZM50.9393 29V22.4545H52.6992V23.5966H52.7674C52.8867 23.1903 53.087 22.8835 53.3683 22.6761C53.6495 22.4659 53.9734 22.3608 54.3398 22.3608C54.4308 22.3608 54.5288 22.3665 54.6339 22.3778C54.739 22.3892 54.8313 22.4048 54.9109 22.4247V24.0355C54.8256 24.0099 54.7077 23.9872 54.5572 23.9673C54.4066 23.9474 54.2688 23.9375 54.1438 23.9375C53.8768 23.9375 53.6381 23.9957 53.4279 24.1122C53.2205 24.2259 53.0558 24.3849 52.9336 24.5895C52.8143 24.794 52.7546 25.0298 52.7546 25.2969V29H50.9393ZM57.4943 27.1165L57.4986 24.9389H57.7628L59.8594 22.4545H61.9432L59.1264 25.7443H58.696L57.4943 27.1165ZM55.8494 29V20.2727H57.6648V29H55.8494ZM59.9403 29L58.0142 26.1491L59.2244 24.8665L62.0668 29H59.9403Z" fill="#0651AE"/>
</g>
<defs>
<clipPath id="clip0_2_7">
<rect width="63" height="61" fill="white"/>
</clipPath>
</defs>
</svg>
