<svg width="110" height="29" viewBox="0 0 110 29" fill="none" xmlns="http://www.w3.org/2000/svg">
<g clip-path="url(#clip0_12_34)">
<path d="M13.4 0.96V15H9.98V9.22H4.66V15H1.24V0.96H4.66V6.46H9.98V0.96H13.4ZM20.9489 15.16C19.8556 15.16 18.8689 14.9267 17.9889 14.46C17.1222 13.9933 16.4356 13.3267 15.9289 12.46C15.4356 11.5933 15.1889 10.58 15.1889 9.42C15.1889 8.27333 15.4422 7.26667 15.9489 6.4C16.4556 5.52 17.1489 4.84667 18.0289 4.38C18.9089 3.91333 19.8956 3.68 20.9889 3.68C22.0822 3.68 23.0689 3.91333 23.9489 4.38C24.8289 4.84667 25.5222 5.52 26.0289 6.4C26.5356 7.26667 26.7889 8.27333 26.7889 9.42C26.7889 10.5667 26.5289 11.58 26.0089 12.46C25.5022 13.3267 24.8022 13.9933 23.9089 14.46C23.0289 14.9267 22.0422 15.16 20.9489 15.16ZM20.9489 12.2C21.6022 12.2 22.1556 11.96 22.6089 11.48C23.0756 11 23.3089 10.3133 23.3089 9.42C23.3089 8.52667 23.0822 7.84 22.6289 7.36C22.1889 6.88 21.6422 6.64 20.9889 6.64C20.3222 6.64 19.7689 6.88 19.3289 7.36C18.8889 7.82667 18.6689 8.51333 18.6689 9.42C18.6689 10.3133 18.8822 11 19.3089 11.48C19.7489 11.96 20.2956 12.2 20.9489 12.2ZM42.8433 3.72C44.2299 3.72 45.3299 4.14 46.1433 4.98C46.9699 5.82 47.3833 6.98667 47.3833 8.48V15H43.9833V8.94C43.9833 8.22 43.7899 7.66667 43.4033 7.28C43.0299 6.88 42.5099 6.68 41.8433 6.68C41.1766 6.68 40.6499 6.88 40.2633 7.28C39.8899 7.66667 39.7033 8.22 39.7033 8.94V15H36.3033V8.94C36.3033 8.22 36.1099 7.66667 35.7233 7.28C35.3499 6.88 34.8299 6.68 34.1633 6.68C33.4966 6.68 32.9699 6.88 32.5833 7.28C32.2099 7.66667 32.0233 8.22 32.0233 8.94V15H28.6033V3.84H32.0233V5.24C32.3699 4.77333 32.8233 4.40667 33.3833 4.14C33.9433 3.86 34.5766 3.72 35.2833 3.72C36.1233 3.72 36.8699 3.9 37.5233 4.26C38.1899 4.62 38.7099 5.13333 39.0833 5.8C39.4699 5.18667 39.9966 4.68667 40.6633 4.3C41.3299 3.91333 42.0566 3.72 42.8433 3.72ZM60.2952 9.24C60.2952 9.56 60.2752 9.89333 60.2352 10.24H52.4952C52.5485 10.9333 52.7685 11.4667 53.1552 11.84C53.5552 12.2 54.0418 12.38 54.6152 12.38C55.4685 12.38 56.0618 12.02 56.3952 11.3H60.0352C59.8485 12.0333 59.5085 12.6933 59.0152 13.28C58.5352 13.8667 57.9285 14.3267 57.1952 14.66C56.4618 14.9933 55.6418 15.16 54.7352 15.16C53.6418 15.16 52.6685 14.9267 51.8152 14.46C50.9618 13.9933 50.2952 13.3267 49.8152 12.46C49.3352 11.5933 49.0952 10.58 49.0952 9.42C49.0952 8.26 49.3285 7.24667 49.7952 6.38C50.2752 5.51333 50.9418 4.84667 51.7952 4.38C52.6485 3.91333 53.6285 3.68 54.7352 3.68C55.8152 3.68 56.7752 3.90667 57.6152 4.36C58.4552 4.81333 59.1085 5.46 59.5752 6.3C60.0552 7.14 60.2952 8.12 60.2952 9.24ZM56.7952 8.34C56.7952 7.75333 56.5952 7.28667 56.1952 6.94C55.7952 6.59333 55.2952 6.42 54.6952 6.42C54.1218 6.42 53.6352 6.58667 53.2352 6.92C52.8485 7.25333 52.6085 7.72667 52.5152 8.34H56.7952Z" fill="url(#paint0_linear_12_34)" fill-opacity="0.64"/>
<path d="M25.26 16.2931L22.24 27.4531H18.46L16.7 20.2131L14.88 27.4531H11.12L8.08 16.2931H11.5L13.08 24.2731L14.96 16.2931H18.58L20.48 24.2331L22.04 16.2931H25.26ZM31.6442 27.6131C30.5509 27.6131 29.5642 27.3798 28.6842 26.9131C27.8176 26.4465 27.1309 25.7798 26.6242 24.9131C26.1309 24.0465 25.8842 23.0331 25.8842 21.8731C25.8842 20.7265 26.1376 19.7198 26.6442 18.8531C27.1509 17.9731 27.8442 17.2998 28.7242 16.8331C29.6042 16.3665 30.5909 16.1331 31.6842 16.1331C32.7776 16.1331 33.7642 16.3665 34.6442 16.8331C35.5242 17.2998 36.2176 17.9731 36.7242 18.8531C37.2309 19.7198 37.4842 20.7265 37.4842 21.8731C37.4842 23.0198 37.2242 24.0331 36.7042 24.9131C36.1976 25.7798 35.4976 26.4465 34.6042 26.9131C33.7242 27.3798 32.7376 27.6131 31.6442 27.6131ZM31.6442 24.6531C32.2976 24.6531 32.8509 24.4131 33.3042 23.9331C33.7709 23.4531 34.0042 22.7665 34.0042 21.8731C34.0042 20.9798 33.7776 20.2931 33.3242 19.8131C32.8842 19.3331 32.3376 19.0931 31.6842 19.0931C31.0176 19.0931 30.4642 19.3331 30.0242 19.8131C29.5842 20.2798 29.3642 20.9665 29.3642 21.8731C29.3642 22.7665 29.5776 23.4531 30.0042 23.9331C30.4442 24.4131 30.9909 24.6531 31.6442 24.6531ZM42.7186 18.1531C43.1186 17.5398 43.6186 17.0598 44.2186 16.7131C44.8186 16.3531 45.4853 16.1731 46.2186 16.1731V19.7931H45.2786C44.4253 19.7931 43.7853 19.9798 43.3586 20.3531C42.9319 20.7131 42.7186 21.3531 42.7186 22.2731V27.4531H39.2986V16.2931H42.7186V18.1531ZM54.6733 27.4531L51.2733 22.7731V27.4531H47.8533V12.6531H51.2733V20.8331L54.6533 16.2931H58.8733L54.2333 21.8931L58.9133 27.4531H54.6733ZM59.5366 21.8531C59.5366 20.7065 59.7499 19.6998 60.1766 18.8331C60.6166 17.9665 61.2099 17.2998 61.9566 16.8331C62.7032 16.3665 63.5366 16.1331 64.4566 16.1331C65.1899 16.1331 65.8566 16.2865 66.4566 16.5931C67.0699 16.8998 67.5499 17.3131 67.8966 17.8331V12.6531H71.3166V27.4531H67.8966V25.8531C67.5766 26.3865 67.1166 26.8131 66.5166 27.1331C65.9299 27.4531 65.2432 27.6131 64.4566 27.6131C63.5366 27.6131 62.7032 27.3798 61.9566 26.9131C61.2099 26.4331 60.6166 25.7598 60.1766 24.8931C59.7499 24.0131 59.5366 22.9998 59.5366 21.8531ZM67.8966 21.8731C67.8966 21.0198 67.6566 20.3465 67.1766 19.8531C66.7099 19.3598 66.1366 19.1131 65.4566 19.1131C64.7766 19.1131 64.1966 19.3598 63.7166 19.8531C63.2499 20.3331 63.0166 20.9998 63.0166 21.8531C63.0166 22.7065 63.2499 23.3865 63.7166 23.8931C64.1966 24.3865 64.7766 24.6331 65.4566 24.6331C66.1366 24.6331 66.7099 24.3865 67.1766 23.8931C67.6566 23.3998 67.8966 22.7265 67.8966 21.8731ZM84.3108 21.6931C84.3108 22.0131 84.2908 22.3465 84.2508 22.6931H76.5108C76.5641 23.3865 76.7841 23.9198 77.1708 24.2931C77.5708 24.6531 78.0574 24.8331 78.6308 24.8331C79.4841 24.8331 80.0774 24.4731 80.4108 23.7531H84.0508C83.8641 24.4865 83.5241 25.1465 83.0308 25.7331C82.5508 26.3198 81.9441 26.7798 81.2108 27.1131C80.4774 27.4465 79.6574 27.6131 78.7508 27.6131C77.6574 27.6131 76.6841 27.3798 75.8308 26.9131C74.9774 26.4465 74.3108 25.7798 73.8308 24.9131C73.3508 24.0465 73.1108 23.0331 73.1108 21.8731C73.1108 20.7131 73.3441 19.6998 73.8108 18.8331C74.2908 17.9665 74.9574 17.2998 75.8108 16.8331C76.6641 16.3665 77.6441 16.1331 78.7508 16.1331C79.8308 16.1331 80.7908 16.3598 81.6308 16.8131C82.4708 17.2665 83.1241 17.9131 83.5908 18.7531C84.0708 19.5931 84.3108 20.5731 84.3108 21.6931ZM80.8108 20.7931C80.8108 20.2065 80.6108 19.7398 80.2108 19.3931C79.8108 19.0465 79.3108 18.8731 78.7108 18.8731C78.1374 18.8731 77.6508 19.0398 77.2508 19.3731C76.8641 19.7065 76.6241 20.1798 76.5308 20.7931H80.8108ZM90.655 27.6131C89.6817 27.6131 88.815 27.4465 88.055 27.1131C87.295 26.7798 86.695 26.3265 86.255 25.7531C85.815 25.1665 85.5683 24.5131 85.515 23.7931H88.895C88.935 24.1798 89.115 24.4931 89.435 24.7331C89.755 24.9731 90.1483 25.0931 90.615 25.0931C91.0417 25.0931 91.3683 25.0131 91.595 24.8531C91.835 24.6798 91.955 24.4598 91.955 24.1931C91.955 23.8731 91.7883 23.6398 91.455 23.4931C91.1217 23.3331 90.5817 23.1598 89.835 22.9731C89.035 22.7865 88.3683 22.5931 87.835 22.3931C87.3017 22.1798 86.8417 21.8531 86.455 21.4131C86.0683 20.9598 85.875 20.3531 85.875 19.5931C85.875 18.9531 86.0483 18.3731 86.395 17.8531C86.755 17.3198 87.275 16.8998 87.955 16.5931C88.6483 16.2865 89.4683 16.1331 90.415 16.1331C91.815 16.1331 92.915 16.4798 93.715 17.1731C94.5283 17.8665 94.995 18.7865 95.115 19.9331H91.955C91.9017 19.5465 91.7283 19.2398 91.435 19.0131C91.155 18.7865 90.7817 18.6731 90.315 18.6731C89.915 18.6731 89.6083 18.7531 89.395 18.9131C89.1817 19.0598 89.075 19.2665 89.075 19.5331C89.075 19.8531 89.2417 20.0931 89.575 20.2531C89.9217 20.4131 90.455 20.5731 91.175 20.7331C92.0017 20.9465 92.675 21.1598 93.195 21.3731C93.715 21.5731 94.1683 21.9065 94.555 22.3731C94.955 22.8265 95.1617 23.4398 95.175 24.2131C95.175 24.8665 94.9883 25.4531 94.615 25.9731C94.255 26.4798 93.7283 26.8798 93.035 27.1731C92.355 27.4665 91.5617 27.6131 90.655 27.6131ZM104.087 27.4531L100.687 22.7731V27.4531H97.2673V12.6531H100.687V20.8331L104.067 16.2931H108.287L103.647 21.8931L108.327 27.4531H104.087Z" fill="url(#paint1_linear_12_34)" fill-opacity="0.64"/>
</g>
<defs>
<linearGradient id="paint0_linear_12_34" x1="7.47658" y1="5.5" x2="66.1557" y2="4.06745" gradientUnits="userSpaceOnUse">
<stop/>
<stop offset="1" stop-color="#F5936F"/>
</linearGradient>
<linearGradient id="paint1_linear_12_34" x1="8" y1="52.9039" x2="119.603" y2="52.9589" gradientUnits="userSpaceOnUse">
<stop offset="0.0373029" stop-color="#82459E"/>
<stop offset="0.91"/>
</linearGradient>
<clipPath id="clip0_12_34">
<rect width="110" height="29" fill="white"/>
</clipPath>
</defs>
</svg>
