<svg width="265" height="50" viewBox="0 0 265 50" fill="none" xmlns="http://www.w3.org/2000/svg">
<g clip-path="url(#clip0_233_2)">
<g filter="url(#filter0_d_233_2)">
<path d="M50.16 47H39.216L20.912 19.288V47H9.968V2.072H20.912L39.216 29.912V2.072H50.16V47Z" fill="#074173"/>
<path d="M56.016 47L40.912 27.16V47H29.968V2.072H40.912V21.784L55.888 2.072H68.752L51.344 24.088L69.392 47H56.016Z" fill="#1679AB"/>
</g>
<path d="M98.96 24.3087C101.733 24.3087 103.933 25.1487 105.56 26.8287C107.213 28.5087 108.04 30.842 108.04 33.8287V46.8687H101.24V34.7487C101.24 33.3087 100.853 32.202 100.08 31.4287C99.3333 30.6287 98.2933 30.2287 96.96 30.2287C95.6267 30.2287 94.5733 30.6287 93.8 31.4287C93.0533 32.202 92.68 33.3087 92.68 34.7487V46.8687H85.88V34.7487C85.88 33.3087 85.4933 32.202 84.72 31.4287C83.9733 30.6287 82.9333 30.2287 81.6 30.2287C80.2667 30.2287 79.2133 30.6287 78.44 31.4287C77.6933 32.202 77.32 33.3087 77.32 34.7487V46.8687H70.48V24.5487H77.32V27.3487C78.0133 26.4153 78.92 25.682 80.04 25.1487C81.16 24.5887 82.4267 24.3087 83.84 24.3087C85.52 24.3087 87.0133 24.6687 88.32 25.3887C89.6533 26.1087 90.6933 27.1353 91.44 28.4687C92.2133 27.242 93.2667 26.242 94.6 25.4687C95.9333 24.6953 97.3867 24.3087 98.96 24.3087ZM133.864 35.3487C133.864 35.9887 133.824 36.6553 133.744 37.3487H118.264C118.37 38.7353 118.81 39.802 119.584 40.5487C120.384 41.2687 121.357 41.6287 122.504 41.6287C124.21 41.6287 125.397 40.9087 126.064 39.4687H133.344C132.97 40.9353 132.29 42.2553 131.304 43.4287C130.344 44.602 129.13 45.522 127.664 46.1887C126.197 46.8553 124.557 47.1887 122.744 47.1887C120.557 47.1887 118.61 46.722 116.904 45.7887C115.197 44.8553 113.864 43.522 112.904 41.7887C111.944 40.0553 111.464 38.0287 111.464 35.7087C111.464 33.3887 111.93 31.362 112.864 29.6287C113.824 27.8953 115.157 26.562 116.864 25.6287C118.57 24.6953 120.53 24.2287 122.744 24.2287C124.904 24.2287 126.824 24.682 128.504 25.5887C130.184 26.4953 131.49 27.7887 132.424 29.4687C133.384 31.1487 133.864 33.1087 133.864 35.3487ZM126.864 33.5487C126.864 32.3753 126.464 31.442 125.664 30.7487C124.864 30.0553 123.864 29.7087 122.664 29.7087C121.517 29.7087 120.544 30.042 119.744 30.7087C118.97 31.3753 118.49 32.322 118.304 33.5487H126.864ZM136.112 35.6687C136.112 33.3753 136.539 31.362 137.392 29.6287C138.272 27.8953 139.459 26.562 140.952 25.6287C142.446 24.6953 144.112 24.2287 145.952 24.2287C147.419 24.2287 148.752 24.5353 149.952 25.1487C151.179 25.762 152.139 26.5887 152.832 27.6287V17.2687H159.672V46.8687H152.832V43.6687C152.192 44.7353 151.272 45.5887 150.072 46.2287C148.899 46.8687 147.526 47.1887 145.952 47.1887C144.112 47.1887 142.446 46.722 140.952 45.7887C139.459 44.8287 138.272 43.482 137.392 41.7487C136.539 39.9887 136.112 37.962 136.112 35.6687ZM152.832 35.7087C152.832 34.002 152.352 32.6553 151.392 31.6687C150.459 30.682 149.312 30.1887 147.952 30.1887C146.592 30.1887 145.432 30.682 144.472 31.6687C143.539 32.6287 143.072 33.962 143.072 35.6687C143.072 37.3753 143.539 38.7353 144.472 39.7487C145.432 40.7353 146.592 41.2287 147.952 41.2287C149.312 41.2287 150.459 40.7353 151.392 39.7487C152.352 38.762 152.832 37.4153 152.832 35.7087ZM168.061 22.2287C166.861 22.2287 165.874 21.882 165.101 21.1887C164.354 20.4687 163.981 19.5887 163.981 18.5487C163.981 17.482 164.354 16.602 165.101 15.9087C165.874 15.1887 166.861 14.8286 168.061 14.8286C169.234 14.8286 170.194 15.1887 170.941 15.9087C171.714 16.602 172.101 17.482 172.101 18.5487C172.101 19.5887 171.714 20.4687 170.941 21.1887C170.194 21.882 169.234 22.2287 168.061 22.2287ZM171.461 24.5487V46.8687H164.621V24.5487H171.461ZM175.058 35.7087C175.058 33.3887 175.524 31.362 176.458 29.6287C177.418 27.8953 178.738 26.562 180.418 25.6287C182.124 24.6953 184.071 24.2287 186.258 24.2287C189.058 24.2287 191.391 24.962 193.258 26.4287C195.151 27.8953 196.391 29.962 196.978 32.6287H189.698C189.084 30.922 187.898 30.0687 186.138 30.0687C184.884 30.0687 183.884 30.562 183.138 31.5487C182.391 32.5087 182.018 33.8953 182.018 35.7087C182.018 37.522 182.391 38.922 183.138 39.9087C183.884 40.8687 184.884 41.3487 186.138 41.3487C187.898 41.3487 189.084 40.4953 189.698 38.7887H196.978C196.391 41.402 195.151 43.4553 193.258 44.9487C191.364 46.442 189.031 47.1887 186.258 47.1887C184.071 47.1887 182.124 46.722 180.418 45.7887C178.738 44.8553 177.418 43.522 176.458 41.7887C175.524 40.0553 175.058 38.0287 175.058 35.7087ZM199.276 35.6687C199.276 33.3753 199.703 31.362 200.556 29.6287C201.436 27.8953 202.623 26.562 204.116 25.6287C205.61 24.6953 207.276 24.2287 209.116 24.2287C210.69 24.2287 212.063 24.5487 213.236 25.1887C214.436 25.8287 215.356 26.6687 215.996 27.7087V24.5487H222.836V46.8687H215.996V43.7087C215.33 44.7487 214.396 45.5887 213.196 46.2287C212.023 46.8687 210.65 47.1887 209.076 47.1887C207.263 47.1887 205.61 46.722 204.116 45.7887C202.623 44.8287 201.436 43.482 200.556 41.7487C199.703 39.9887 199.276 37.962 199.276 35.6687ZM215.996 35.7087C215.996 34.002 215.516 32.6553 214.556 31.6687C213.623 30.682 212.476 30.1887 211.116 30.1887C209.756 30.1887 208.596 30.682 207.636 31.6687C206.703 32.6287 206.236 33.962 206.236 35.6687C206.236 37.3753 206.703 38.7353 207.636 39.7487C208.596 40.7353 209.756 41.2287 211.116 41.2287C212.476 41.2287 213.623 40.7353 214.556 39.7487C215.516 38.762 215.996 37.4153 215.996 35.7087ZM234.625 17.2687V46.8687H227.785V17.2687H234.625ZM248.662 47.1887C246.715 47.1887 244.982 46.8553 243.462 46.1887C241.942 45.522 240.742 44.6153 239.862 43.4687C238.982 42.2953 238.488 40.9887 238.382 39.5487H245.142C245.222 40.322 245.582 40.9487 246.222 41.4287C246.862 41.9087 247.648 42.1487 248.582 42.1487C249.435 42.1487 250.088 41.9887 250.542 41.6687C251.022 41.322 251.262 40.882 251.262 40.3487C251.262 39.7087 250.928 39.242 250.262 38.9487C249.595 38.6287 248.515 38.282 247.022 37.9087C245.422 37.5353 244.088 37.1487 243.022 36.7487C241.955 36.322 241.035 35.6687 240.262 34.7887C239.488 33.882 239.102 32.6687 239.102 31.1487C239.102 29.8687 239.448 28.7087 240.142 27.6687C240.862 26.602 241.902 25.762 243.262 25.1487C244.648 24.5353 246.288 24.2287 248.182 24.2287C250.982 24.2287 253.182 24.922 254.782 26.3087C256.408 27.6953 257.342 29.5353 257.582 31.8287H251.262C251.155 31.0553 250.808 30.442 250.222 29.9887C249.662 29.5353 248.915 29.3087 247.982 29.3087C247.182 29.3087 246.568 29.4687 246.142 29.7887C245.715 30.082 245.502 30.4953 245.502 31.0287C245.502 31.6687 245.835 32.1487 246.502 32.4687C247.195 32.7887 248.262 33.1087 249.702 33.4287C251.355 33.8553 252.702 34.282 253.742 34.7087C254.782 35.1087 255.688 35.7753 256.462 36.7087C257.262 37.6153 257.675 38.842 257.702 40.3887C257.702 41.6953 257.328 42.8687 256.582 43.9087C255.862 44.922 254.808 45.722 253.422 46.3087C252.062 46.8953 250.475 47.1887 248.662 47.1887Z" fill="#1679AB"/>
</g>
<defs>
<filter id="filter0_d_233_2" x="5.96802" y="2.07178" width="67.424" height="52.9282" filterUnits="userSpaceOnUse" color-interpolation-filters="sRGB">
<feFlood flood-opacity="0" result="BackgroundImageFix"/>
<feColorMatrix in="SourceAlpha" type="matrix" values="0 0 0 0 0 0 0 0 0 0 0 0 0 0 0 0 0 0 127 0" result="hardAlpha"/>
<feOffset dy="4"/>
<feGaussianBlur stdDeviation="2"/>
<feComposite in2="hardAlpha" operator="out"/>
<feColorMatrix type="matrix" values="0 0 0 0 0.027451 0 0 0 0 0.254902 0 0 0 0 0.45098 0 0 0 0.18 0"/>
<feBlend mode="normal" in2="BackgroundImageFix" result="effect1_dropShadow_233_2"/>
<feBlend mode="normal" in="SourceGraphic" in2="effect1_dropShadow_233_2" result="shape"/>
</filter>
<clipPath id="clip0_233_2">
<rect width="265" height="50" fill="white"/>
</clipPath>
</defs>
</svg>
